#define backdrop3_width 16
#define backdrop3_height 16
static char backdrop3_bits[] = {
   0xff, 0xff, 0x00, 0x00, 0xff, 0xff, 0x00, 0x00, 0xff, 0xff, 0x00, 0x00,
   0xff, 0xff, 0x00, 0x00, 0xff, 0xff, 0x00, 0x00, 0xff, 0xff, 0x00, 0x00,
   0xff, 0xff, 0x00, 0x00, 0xff, 0xff, 0x00, 0x00};
