#define backdrop4_width 16
#define backdrop4_height 16
static char backdrop4_bits[] = {
   0x55, 0x55, 0xaa, 0xaa, 0x55, 0x55, 0xaa, 0xaa, 0x55, 0x55, 0xaa, 0xaa,
   0x55, 0x55, 0xaa, 0xaa, 0x55, 0x55, 0xaa, 0xaa, 0x55, 0x55, 0xaa, 0xaa,
   0x55, 0x55, 0xaa, 0xaa, 0x55, 0x55, 0xaa, 0xaa};
