#define backdrop5_width 16
#define backdrop5_height 16
static char backdrop5_bits[] = {
   0x33, 0x33, 0x33, 0x33, 0xcc, 0xcc, 0xcc, 0xcc, 0x33, 0x33, 0x33, 0x33,
   0xcc, 0xcc, 0xcc, 0xcc, 0x33, 0x33, 0x33, 0x33, 0xcc, 0xcc, 0xcc, 0xcc,
   0x33, 0x33, 0x33, 0x33, 0xcc, 0xcc, 0xcc, 0xcc};
