#define canvas_icon_width 64
#define canvas_icon_height 32
static char canvas_icon_bits[] = {
   0x00, 0x00, 0x00, 0x00, 0x00, 0x00, 0x00, 0x00, 0x00, 0x00, 0x00, 0x00,
   0x00, 0x00, 0x00, 0x00, 0x00, 0x00, 0x00, 0x00, 0x00, 0x00, 0x00, 0x00,
   0x00, 0x00, 0x00, 0x00, 0x00, 0x00, 0x00, 0x00, 0x00, 0x00, 0x00, 0x00,
   0x00, 0x00, 0x00, 0x00, 0x00, 0x00, 0x00, 0x00, 0x00, 0x00, 0x00, 0x00,
   0x00, 0x00, 0x00, 0x40, 0x00, 0x00, 0x00, 0x00, 0x00, 0x00, 0x00, 0x00,
   0x00, 0x00, 0x01, 0x00, 0x00, 0x90, 0x9c, 0x26, 0x6d, 0xdc, 0x73, 0x00,
   0x00, 0x50, 0x92, 0x25, 0x5b, 0x92, 0x48, 0x00, 0x00, 0x30, 0x91, 0x24,
   0x49, 0x91, 0x24, 0x00, 0x00, 0x30, 0x49, 0x92, 0x24, 0x49, 0x1c, 0x00,
   0x00, 0x28, 0x4d, 0x92, 0x24, 0x4d, 0x04, 0x00, 0x00, 0x24, 0x4b, 0x92,
   0x24, 0xcb, 0x38, 0x00, 0x00, 0x00, 0x00, 0x00, 0x00, 0x00, 0x00, 0x00,
   0x00, 0x00, 0x00, 0x00, 0x00, 0x00, 0x00, 0x00, 0x00, 0x00, 0x00, 0x00,
   0x00, 0x00, 0x00, 0x00, 0x00, 0x00, 0x8c, 0xd3, 0x24, 0xce, 0x01, 0x00,
   0x00, 0x00, 0x42, 0xb2, 0x24, 0x29, 0x00, 0x00, 0x00, 0x00, 0x21, 0x92,
   0xa4, 0x68, 0x00, 0x00, 0x00, 0x00, 0x21, 0x49, 0x94, 0xc4, 0x00, 0x00,
   0x00, 0x00, 0xa1, 0x49, 0x8c, 0x86, 0x00, 0x00, 0x00, 0x00, 0x66, 0x49,
   0x84, 0x75, 0x00, 0x00, 0x00, 0x00, 0x00, 0x00, 0x00, 0x00, 0x00, 0x00,
   0x00, 0x00, 0x00, 0x00, 0x00, 0x00, 0x00, 0x00, 0x00, 0x00, 0x00, 0x00,
   0x00, 0x00, 0x00, 0x00, 0x00, 0x00, 0x00, 0x00, 0x00, 0x00, 0x00, 0x00,
   0x00, 0x00, 0x00, 0x00, 0x00, 0x00, 0x00, 0x00, 0x00, 0x00, 0x00, 0x00,
   0x00, 0x00, 0x00, 0x00, 0x00, 0x00, 0x00, 0x00, 0x00, 0x00, 0x00, 0x00,
   0x00, 0x00, 0x00, 0x00, 0x00, 0x00, 0x00, 0x00, 0x00, 0x00, 0x00, 0x00,
   0x00, 0x00, 0x00, 0x00};
