#define cycle_width 32
#define cycle_height 16
static char cycle_bits[] = {
   0x00, 0x20, 0x00, 0x00, 0x00, 0x60, 0x00, 0x00, 0x00, 0xe0, 0x00, 0x00,
   0xfc, 0xff, 0xfd, 0x3f, 0xfe, 0xff, 0xfb, 0x7f, 0x07, 0x00, 0x00, 0xe0,
   0x03, 0x00, 0x00, 0xc0, 0x03, 0x00, 0x00, 0xc0, 0x03, 0x00, 0x00, 0xc0,
   0x03, 0x00, 0x00, 0xc0, 0x07, 0x00, 0x00, 0xe0, 0xfe, 0xef, 0xff, 0x7f,
   0xfc, 0xdf, 0xff, 0x3f, 0x00, 0x80, 0x03, 0x00, 0x00, 0x00, 0x03, 0x00,
   0x00, 0x00, 0x02, 0x00};
