#define loop_back_width 32
#define loop_back_height 16
static char loop_back_bits[] = {
   0x00, 0x00, 0x00, 0x00, 0x00, 0x00, 0x00, 0x00, 0x00, 0x00, 0x00, 0x00,
   0x00, 0x00, 0x00, 0x00, 0x00, 0x00, 0x00, 0x00, 0x00, 0x08, 0x08, 0x00,
   0x00, 0x18, 0x0c, 0x00, 0xff, 0x3f, 0xfe, 0xff, 0xff, 0x7f, 0xff, 0xff,
   0xff, 0x3f, 0xfe, 0xff, 0x00, 0x18, 0x0c, 0x00, 0x00, 0x08, 0x08, 0x00,
   0x00, 0x00, 0x00, 0x00, 0x00, 0x00, 0x00, 0x00, 0x00, 0x00, 0x00, 0x00,
   0x00, 0x00, 0x00, 0x00};
