#define one_way_width 32
#define one_way_height 16
static char one_way_bits[] = {
   0x00, 0x20, 0x00, 0x00, 0x00, 0x60, 0x00, 0x00, 0x00, 0xe0, 0x00, 0x00,
   0xff, 0xff, 0xfd, 0xff, 0xff, 0xff, 0xfb, 0xff, 0x00, 0x00, 0x00, 0x00,
   0x00, 0x00, 0x00, 0x00, 0x00, 0x00, 0x00, 0x00, 0x00, 0x00, 0x00, 0x00,
   0x00, 0x00, 0x00, 0x00, 0x00, 0x00, 0x00, 0x00, 0xff, 0xef, 0xff, 0xff,
   0xff, 0xdf, 0xff, 0xff, 0x00, 0x80, 0x03, 0x00, 0x00, 0x00, 0x03, 0x00,
   0x00, 0x00, 0x02, 0x00};
