#define test_width 32
#define test_height 16
static char test_bits[] = {
   0x00, 0x40, 0x00, 0x00, 0x00, 0xc0, 0x00, 0x00, 0x00, 0xc0, 0x01, 0x00,
   0xff, 0xff, 0xfb, 0xff, 0xff, 0xff, 0xf7, 0xff, 0x00, 0x00, 0x00, 0x00,
   0x00, 0x00, 0x00, 0x00, 0x00, 0x00, 0x00, 0x00, 0x00, 0x00, 0x00, 0x00,
   0x00, 0x00, 0x00, 0x00, 0x00, 0x00, 0x00, 0x00, 0xff, 0xf7, 0xff, 0xff,
   0xff, 0xef, 0xff, 0xff, 0x00, 0xc0, 0x01, 0x00, 0x00, 0x80, 0x01, 0x00,
   0x00, 0x00, 0x01, 0x00};
